HIERARCHY
ROOT Hips
{
  OFFSET -33.9132 29.2015 117.021
  CHANNELS 6 Xposition Yposition Zposition Zrotation Xrotation Yrotation
  JOINT LeftUpLeg
  {
    OFFSET 8.64259 1.95398 -2.38835
    CHANNELS 3 Zrotation Xrotation Yrotation
    JOINT LeftLeg
    {
      OFFSET 43.7702 0 0
      CHANNELS 3 Zrotation Xrotation Yrotation
      JOINT LeftFoot
      {
        OFFSET 40.6238 0 0
        CHANNELS 3 Zrotation Xrotation Yrotation
        JOINT LeftToeBase
        {
          OFFSET 12.7242 0 0
          CHANNELS 3 Zrotation Xrotation Yrotation
          End Site
          {
            OFFSET 0 0 0
          }
        }
      }
    }
  }
  JOINT RightUpLeg
  {
    OFFSET -8.2249 1.95398 -2.59336
    CHANNELS 3 Zrotation Xrotation Yrotation
    JOINT RightLeg
    {
      OFFSET 43.5653 0 0
      CHANNELS 3 Zrotation Xrotation Yrotation
      JOINT RightFoot
      {
        OFFSET 40.6238 0 0
        CHANNELS 3 Zrotation Xrotation Yrotation
        JOINT RightToeBase
        {
          OFFSET 12.7242 0 0
          CHANNELS 3 Zrotation Xrotation Yrotation
          End Site
          {
            OFFSET 0 0 0
          }
        }
      }
    }
  }
  JOINT Spine
  {
    OFFSET 0.165834 0.87714 6.61349
    CHANNELS 3 Zrotation Xrotation Yrotation
    JOINT Spine1
    {
      OFFSET 7.38963 1.71661e-005 0
      CHANNELS 3 Zrotation Xrotation Yrotation
      JOINT Spine2
      {
        OFFSET 11.9445 1.14441e-005 0
        CHANNELS 3 Zrotation Xrotation Yrotation
        JOINT Spine3
        {
          OFFSET 14.7254 4.19617e-005 0
          CHANNELS 3 Zrotation Xrotation Yrotation
          JOINT Spine4
          {
            OFFSET 10.9679 0 0
            CHANNELS 3 Zrotation Xrotation Yrotation
            JOINT RightShoulder
            {
              OFFSET 2.46616 -1.6653 3.69651
              CHANNELS 3 Zrotation Xrotation Yrotation
              JOINT RightArm
              {
                OFFSET 13.0012 0 0
                CHANNELS 3 Zrotation Xrotation Yrotation
                JOINT RightForeArm
                {
                  OFFSET 28.7848 1.62311e-005 0
                  CHANNELS 3 Zrotation Xrotation Yrotation
                  JOINT RightHand
                  {
                    OFFSET 26.5688 1.62095e-005 0
                    CHANNELS 3 Zrotation Xrotation Yrotation
                    End Site
                    {
                      OFFSET 0 0 0
                    }
                  }
                }
              }
            }
            JOINT LeftShoulder
            {
              OFFSET 2.38034 -1.29275 -3.7523
              CHANNELS 3 Zrotation Xrotation Yrotation
              JOINT LeftArm
              {
                OFFSET 16.3182 6.07031e-005 0
                CHANNELS 3 Zrotation Xrotation Yrotation
                JOINT LeftForeArm
                {
                  OFFSET 27.0901 0 0
                  CHANNELS 3 Zrotation Xrotation Yrotation
                  JOINT LeftHand
                  {
                    OFFSET 24.5451 1.51738e-005 0
                    CHANNELS 3 Zrotation Xrotation Yrotation
                    End Site
                    {
                      OFFSET 0 0 0
                    }
                  }
                }
              }
            }
            JOINT Neck
            {
              OFFSET 5.0226 -0.0266342 0
              CHANNELS 3 Zrotation Xrotation Yrotation
              JOINT Head
              {
                OFFSET 6.69364 2.86102e-005 0
                CHANNELS 3 Zrotation Xrotation Yrotation
                End Site
                {
                  OFFSET 0 0 0
                }
              }
            }
          }
        }
      }
    }
  }
}
MOTION
Frames:	14
Frame Time:	0.0416667
-271.659 92.0602 255.72 112.435 57.8048 76.4941 -157.447 -33.7733 110.383 -8.30319 28.0094 1.59152 80.3209 14.8537 -1.70949 27.6842 -7.95305 16.144 172.854 12.6477 94.1917 -32.5179 1.93722 3.64446 72.5477 1.88464 2.48118 18.473 4.25157 1.65979 -1.79954 8.18754 -90.588 10.4882 -3.85432 -0.826233 -1.17719 -3.88692 -0.655567 -23.7484 -3.42766 -1.9476 -3.73573 -3.42764 -1.94759 91.7907 -26.9471 -104.252 37.9728 0.244084 14.4456 -10.8503 -4.17344 -64.9317 -10.7327 3.20394 -40.452 -89.6181 -47.1434 78.6865 -28.5337 -4.93573 -17.9879 -93.4604 -63.3168 -87.4832 -0.516254 3.46072 -59.8453 4.58082 -0.0472305 -5.70101 -4.50086 0.970395 0.29844 
-266.302 93.0078 249.72 109.855 51.3782 78.4576 -168.392 -32.9226 98.6103 -17.4751 18.2763 2.1357 53.3273 1.46224 0.857448 28.9359 -1.43804 3.4056 170.876 9.50201 92.3598 -35.8829 -7.29493 5.69336 73.7177 -5.26294 -0.213241 17.1511 4.32931 3.08783 -1.02977 8.0685 -90.5612 10.7278 -2.30922 -0.903264 -0.941423 -2.34675 -0.800722 -23.4859 -1.93102 -1.55566 -3.47329 -1.93102 -1.55567 91.6282 -25.98 -104.956 38.6614 -0.400402 16.2338 -11.5283 -4.38607 -65.7599 -11.2211 3.29772 -39.8329 -89.8029 -46.9884 78.3661 -28.9061 -5.09278 -15.0485 -15.62 -11.777 -22.52 -3.76231 0.377367 -50.1629 4.28724 0.112182 -4.0815 -4.33626 0.830849 0.0859737 
-261.507 94.3788 244.858 103.954 43.9435 84.2602 -169.442 -5.10062 97.3421 -52.249 12.4525 1.55496 57.7516 -0.618121 -0.0453539 7.73325 -10.9314 0.763459 172.92 4.9717 94.3264 -30.1939 -13.7562 3.53755 72.8189 -7.76677 -2.29066 20.7105 3.53101 0.736525 0.138863 7.84514 -90.6619 11.1815 -0.0311942 -1.31483 -0.49007 -0.0890639 -1.31218 -23.0204 0.365368 -1.26342 -3.0077 0.36535 -1.26343 91.3304 -25.4621 -105.79 38.6188 -0.595339 15.5453 -12.7888 -5.01263 -65.8791 -11.3063 3.34942 -40.0071 -89.5753 -47.7246 78.8797 -26.9857 -5.68647 -16.1863 -15.0229 -11.2127 -22.1493 -7.79022 1.82518 -40.4388 2.98033 -0.0267294 -2.39218 -3.36513 0.366569 0.453835 
-256.693 96.1036 242.538 99.0268 35.9073 89.091 -166.046 10.138 96.8453 -54.8201 4.22046 -1.65824 68.9788 5.88888 1.68715 11.545 -11.589 4.9673 177.89 0.41044 97.7761 -21.1542 -15.1929 -0.379509 70.3911 -7.36352 -0.541735 21.3873 2.89778 1.69173 1.47314 7.59428 -90.736 11.7046 2.58474 -1.73825 0.0347591 2.50576 -1.85034 -22.5169 2.98756 -0.880658 -2.50421 2.98754 -0.880665 91.5631 -25.5304 -105.265 39.6679 -2.64736 13.3774 -8.9182 -3.10528 -65.2727 -14.3089 3.91956 -37.2643 -89.3372 -47.5811 79.2151 -26.7503 -6.5965 -16.6496 -13.7669 -9.21282 -22.1765 -10.7108 2.54144 -39.2567 1.0889 -0.285617 -0.224759 -3.13767 -0.243095 -0.622677 
-251.319 96.5943 238.585 96.5977 30.3344 90.3788 -167.261 19.9803 96.0582 -37.7038 -7.84558 -4.04554 72.2702 6.05337 -3.87404 12.5177 -14.1852 9.69452 179.725 -5.46987 97.7968 -15.0482 -17.1405 -3.00704 70.4634 -7.70828 1.29891 22.6933 2.23165 1.92401 2.276 7.53685 -90.6761 11.8386 4.20824 -1.79674 0.172954 4.12512 -1.98045 -22.4158 4.55333 -0.446574 -2.40313 4.55333 -0.446576 91.8109 -23.6388 -105.48 40.2916 -4.65799 11.6167 -8.2612 -2.6852 -66.0285 -14.2123 3.8804 -37.0378 -89.2372 -48.7814 79.6199 -24.2609 -7.71771 -16.3752 -12.8012 -7.08254 -22.5752 -11.2792 2.68735 -39.2876 1.75975 0.148545 2.83431 -2.47289 -0.292565 -0.277776 
-245.331 95.4357 231.885 97.0335 27.9441 88.0317 -172.094 18.4738 94.5196 -11.2498 -7.37181 -3.40762 66.065 2.86963 -1.96879 18.7391 -9.09665 7.77063 175.907 -12.0349 92.3973 -15.2485 -23.2718 -3.86892 75.1693 -10.6798 0.425473 24.4288 2.25043 -0.777453 2.57007 7.72981 -90.3901 11.4491 4.93147 -1.27798 -0.213374 4.87044 -1.49426 -22.8239 5.08697 0.267054 -2.81123 5.08698 0.267049 90.4173 -25.3441 -107.795 38.4186 -3.08222 9.77458 -8.67264 -2.78659 -66.977 -13.5988 3.83306 -38.0729 -89.03 -49.5604 80.0838 -20.0644 -5.75888 -14.6364 -16.5992 -12.7346 -27.0239 -12.5622 3.35761 -41.7852 2.62729 0.443065 4.0788 -2.32341 -0.223145 0.345803 
-238.303 93.4478 224.474 99.5535 26.0719 83.363 -173.887 17.3738 91.5719 -8.99573 -9.90988 -2.69771 63.3144 0.393545 -2.95436 13.6507 -11.3915 6.55093 169.843 -17.7387 83.5976 -20.6496 -28.5776 -5.21521 79.0336 -13.8425 -1.30902 29.2236 0.111904 -1.42341 2.58371 8.0757 -90.124 10.7507 5.08799 -0.712087 -0.910545 5.0517 -0.935893 -23.5252 5.06614 0.854046 -3.51257 5.06613 0.854035 90.258 -24.1293 -108.66 37.7461 -2.92918 8.27168 -11.4845 -4.0222 -67.7199 -12.6946 3.46409 -37.258 -89.4536 -54.1338 80.3675 -18.3294 -11.0418 -13.8506 -14.7448 -10.6016 -27.8551 -14.1984 3.8732 -41.6462 2.47553 0.999874 6.88755 -1.19497 -0.13025 -0.751688 
-230.538 93.1602 216.077 99.1763 27.2846 81.4735 -171.244 20.2483 88.94 -23.0685 -0.189356 -5.86201 59.8566 -1.53771 -2.17397 8.27441 -14.2006 5.75698 169.778 -17.687 81.3809 -29.8833 -26.2459 -8.47059 69.0563 -6.57953 -3.52234 43.705 -6.91927 3.78857 2.29146 7.87342 -89.6917 11.1316 4.70414 0.153398 -0.530775 4.7063 -0.054261 -23.129 4.44009 1.56291 -3.11634 4.4401 1.56291 89.8287 -26.3261 -108.61 38.7751 -3.69992 9.1424 -12.1607 -4.51282 -66.8069 -12.2141 3.31772 -37.143 -89.0894 -50.472 80.1795 -23.3844 -12.97 -10.2339 -13.1851 -8.80342 -28.0159 -13.8598 3.863 -42.539 3.68491 0.647769 1.77608 -2.35765 0.339471 1.50711 
-223.441 93.962 208.473 98.1481 30.5348 80.9914 -170.247 18.0005 85.9908 -29.2496 3.96124 -6.21243 66.1132 3.712 0.737406 11.0615 -10.7726 3.25454 175.368 -5.9455 83.6326 -52.9289 -21.1752 -9.16187 55.2814 3.30733 0.121701 20.5281 1.73802 6.38599 1.61346 7.65687 -89.6175 11.558 3.38882 0.413446 -0.108544 3.40375 0.263712 -22.6742 3.10776 1.41375 -2.66157 3.10775 1.41375 90.3446 -24.548 -108.291 40.9344 -6.23111 11.6287 -9.62575 -3.21954 -67.1725 -15.2717 3.92835 -35.1608 -89.0905 -50.8907 80.265 -23.4675 -12.1616 -7.59952 -13.1074 -8.31642 -28.668 -11.3032 2.9776 -42.3091 5.0723 0.852191 2.48015 -3.36672 0.387487 -0.801379 
-217.139 95.0479 201.922 98.0701 30.6239 81.9005 -171.691 12.0161 84.7076 -29.9975 2.21082 -5.49483 72.496 7.39742 0.730347 11.8952 -11.005 4.33979 -179.662 6.7899 85.5096 -65.9052 -20.9419 -8.14216 59.696 -0.361525 -1.99106 23.9819 -0.0100079 7.59589 1.14669 7.67753 -89.7376 11.518 2.4042 0.276673 -0.150703 2.41404 0.170532 -22.7013 2.20986 0.986777 -2.68861 2.20984 0.986775 90.8432 -24.1172 -107.405 40.2567 -4.97782 11.1022 -12.0685 -4.52639 -66.4974 -11.9789 3.24876 -37.1475 -88.6564 -49.7674 80.6941 -23.7515 -10.1368 -8.65316 -14.003 -9.34744 -28.3364 -12.3727 3.40599 -42.9142 5.04393 1.38131 1.19917 -3.47658 1.13967 -1.25682 
-210.51 96.7625 195.088 101.127 32.6327 81.8725 -174.165 -0.385421 89.9503 -23.1282 1.62711 -2.50364 74.8736 8.71061 -0.0838679 13.2533 -11.4887 6.33035 179.109 13.2731 91.5345 -55.9558 -9.28302 -4.7638 69.263 -6.75316 -2.24159 23.0108 2.05271 2.08908 0.405397 7.90427 -89.8698 11.0646 0.86715 0.171865 -0.606119 0.873893 0.133521 -23.1424 0.775412 0.424542 -3.12979 0.775423 0.424539 90.1606 -25.8166 -108.127 39.4696 -3.06438 10.8589 -11.2412 -4.39967 -64.8283 -11.1621 3.25303 -39.5713 -88.343 -47.5787 80.7455 -25.6775 -8.51612 -8.77924 -13.7174 -8.87594 -28.1013 -12.42 3.45188 -43.1775 3.60335 1.72499 -2.82655 -3.82547 2.18294 -0.193806 
-203.491 96.6938 189.207 101.032 35.4334 84.0099 -174.295 -7.13107 86.3249 -19.5552 3.88239 -0.63586 78.652 10.7827 0.934968 14.1889 -11.0018 6.42884 178.338 16.1809 94.8097 -28.9399 -3.03302 -0.796168 65.1372 -4.3511 -1.06969 25.0019 1.3527 1.40602 -0.15788 7.95269 -90.0649 10.9689 -0.344178 -0.0945265 -0.701949 -0.348009 -0.0792998 -23.2376 -0.29988 -0.193604 -3.22491 -0.299876 -0.193611 90.0103 -26.2332 -108.266 38.0689 -0.81306 12.326 -9.9232 -3.61515 -65.384 -10.5104 3.16897 -40.834 -88.5487 -45.5685 80.0153 -28.9428 -8.30742 -11.5388 -11.5603 -5.07264 -27.7007 -9.90768 2.54527 -42.9631 4.66705 1.09633 -7.0321 -4.40837 2.34686 -0.0101151 
-196.034 94.8023 182.351 99.45 39.0709 83.6103 -175.002 -14.5153 85.6234 -15.4116 5.479 0.434749 82.9138 13.8636 -0.808215 17.8921 -11.3906 10.7781 177.299 18.4867 93.5106 -7.75377 -4.32027 1.50356 63.6517 -2.94139 -0.207236 25.6546 1.33601 0.389919 -0.626912 7.85859 -89.8518 11.1592 -1.17874 0.410195 -0.511266 -1.15954 0.461668 -23.0507 -1.24753 0.0369118 -3.03804 -1.24751 0.0369127 91.6352 -26.997 -104.56 37.3559 -0.0937283 11.6516 -10.2443 -3.76242 -65.5165 -10.0521 3.12676 -42.0004 -88.8346 -44.5756 79.3513 -29.5508 -5.82407 -16.2531 -12.4248 -5.90811 -25.6937 -8.89142 2.173 -42.581 5.32723 -0.48671 -10.9001 -3.54187 1.53967 0.986862 
-187.194 92.6153 175.236 101.429 42.6192 82.5059 -171.554 -22.5363 90.1739 -15.6041 9.80159 0.064634 84.0436 15.8189 -1.66546 28.2739 -6.74102 14.2574 177.043 21.2422 93.6089 -15.0836 -6.11569 1.47182 62.8383 -1.08024 1.01788 26.8594 0.0286608 3.22004 -0.961959 7.9832 -89.8664 10.9134 -1.85333 0.442527 -0.756288 -1.83205 0.523682 -23.3023 -1.90063 -0.135139 -3.28962 -1.9006 -0.135137 91.5942 -27.1804 -104.576 36.4891 1.32477 13.0944 -10.1844 -3.63211 -66.0842 -11.3968 3.55638 -42.1085 -89.8082 -45.5746 78.0338 -29.8679 -5.33047 -18.9269 -12.4972 -5.70883 -24.611 -7.11407 1.3516 -38.4119 6.90273 -0.861771 -10.8346 -3.83149 1.31956 -0.218739 
